<svg width="55" height="48" viewBox="0 0 55 48" fill="none" xmlns="http://www.w3.org/2000/svg">
<path d="M43.1316 48L39.1526 44.0471L43.6289 39.5294H31.7632V33.8824H43.6289L39.1526 29.3647L43.1316 25.4118L54.5 36.7059L43.1316 48ZM11.8684 16.9412H34.6053V11.2941H11.8684V16.9412ZM11.8684 28.2353H26.0789V22.5882H11.8684V28.2353ZM0.5 48V5.64706C0.5 4.09412 1.05658 2.76471 2.16974 1.65882C3.28289 0.552941 4.62105 0 6.18421 0H40.2895C41.8526 0 43.1908 0.552941 44.3039 1.65882C45.4171 2.76471 45.9737 4.09412 45.9737 5.64706V19.9765C45.5 19.8824 45.0263 19.8235 44.5526 19.8C44.0789 19.7765 43.6053 19.7647 43.1316 19.7647C38.3474 19.7647 34.3092 21.4118 31.0171 24.7059C27.725 28 26.0789 32 26.0789 36.7059C26.0789 37.1765 26.0908 37.6471 26.1145 38.1176C26.1382 38.5882 26.1974 39.0588 26.2921 39.5294H9.02632L0.5 48Z" fill="#B77895"/>
</svg>
