<svg width="24" height="24" viewBox="0 0 24 24" fill="none" xmlns="http://www.w3.org/2000/svg">
<path d="M24 12C24 18.6274 18.6274 24 12 24C5.37258 24 0 18.6274 0 12C0 5.37258 5.37258 0 12 0C18.6274 0 24 5.37258 24 12Z" fill="url(#paint0_linear_39643_62)"/>
<path d="M14.448 10.32C14.2453 9.94667 13.952 9.664 13.568 9.472C13.1947 9.26933 12.752 9.168 12.24 9.168C11.3547 9.168 10.6453 9.46133 10.112 10.048C9.57867 10.624 9.312 11.3973 9.312 12.368C9.312 13.4027 9.58933 14.2133 10.144 14.8C10.7093 15.376 11.4827 15.664 12.464 15.664C13.136 15.664 13.7013 15.4933 14.16 15.152C14.6293 14.8107 14.9707 14.32 15.184 13.68H11.712V11.664H17.664V14.208C17.4613 14.8907 17.1147 15.5253 16.624 16.112C16.144 16.6987 15.5307 17.1733 14.784 17.536C14.0373 17.8987 13.1947 18.08 12.256 18.08C11.1467 18.08 10.1547 17.84 9.28 17.36C8.416 16.8693 7.73867 16.192 7.248 15.328C6.768 14.464 6.528 13.4773 6.528 12.368C6.528 11.2587 6.768 10.272 7.248 9.408C7.73867 8.53333 8.416 7.856 9.28 7.376C10.144 6.88533 11.1307 6.64 12.24 6.64C13.584 6.64 14.7147 6.96533 15.632 7.616C16.56 8.26667 17.1733 9.168 17.472 10.32H14.448Z" fill="#272A4D"/>
<defs>
<linearGradient id="paint0_linear_39643_62" x1="23.3189" y1="24" x2="-0.810811" y2="24" gradientUnits="userSpaceOnUse">
<stop stop-color="#B77895"/>
<stop offset="1" stop-color="#B77895"/>
</linearGradient>
</defs>
</svg>
