<svg width="45" height="46" viewBox="0 0 45 46" fill="none" xmlns="http://www.w3.org/2000/svg">
<path d="M5 45.5C3.625 45.5 2.44792 45.0104 1.46875 44.0312C0.489583 43.0521 0 41.875 0 40.5V5.5C0 4.125 0.489583 2.94792 1.46875 1.96875C2.44792 0.989583 3.625 0.5 5 0.5H27.5V13H32.5V18H45V40.5C45 41.875 44.5104 43.0521 43.5312 44.0312C42.5521 45.0104 41.375 45.5 40 45.5H5ZM7.5 35.5H37.5L28.125 23L20.625 33L15 25.5L7.5 35.5ZM35 15.5V10.5H30V5.5H35V0.5H40V5.5H45V10.5H40V15.5H35Z" fill="#B77895"/>
</svg>
