<svg width="32" height="32" viewBox="0 0 32 32" fill="none" xmlns="http://www.w3.org/2000/svg">
<path d="M8.99445 28C8.38071 28 7.8564 27.7827 7.42153 27.348C6.98686 26.9131 6.76953 26.3888 6.76953 25.7751V14.2249C6.76953 13.6112 6.98686 13.0869 7.42153 12.652C7.8564 12.2173 8.38071 12 8.99445 12H10.4618V9.53846C10.4618 8.00164 11.0007 6.69436 12.0785 5.61661C13.1562 4.53887 14.4635 4 16.0003 4C17.5371 4 18.8444 4.53887 19.9221 5.61661C20.9999 6.69436 21.5388 8.00164 21.5388 9.53846V12H23.0061C23.6199 12 24.1442 12.2173 24.5791 12.652C25.0137 13.0869 25.2311 13.6112 25.2311 14.2249V25.7751C25.2311 26.3888 25.0137 26.9131 24.5791 27.348C24.1442 27.7827 23.6199 28 23.0061 28H8.99445ZM8.99445 26.1538H23.0061C23.1167 26.1538 23.2075 26.1184 23.2785 26.0474C23.3494 25.9764 23.3849 25.8856 23.3849 25.7751V14.2249C23.3849 14.1144 23.3494 14.0236 23.2785 13.9526C23.2075 13.8816 23.1167 13.8462 23.0061 13.8462H8.99445C8.88389 13.8462 8.79312 13.8816 8.72215 13.9526C8.65117 14.0236 8.61569 14.1144 8.61569 14.2249V25.7751C8.61569 25.8856 8.65117 25.9764 8.72215 26.0474C8.79312 26.1184 8.88389 26.1538 8.99445 26.1538ZM16.0003 22.1538C16.5982 22.1538 17.1068 21.9444 17.5258 21.5255C17.9447 21.1065 18.1541 20.5979 18.1541 20C18.1541 19.4021 17.9447 18.8935 17.5258 18.4745C17.1068 18.0556 16.5982 17.8462 16.0003 17.8462C15.4024 17.8462 14.8938 18.0556 14.4748 18.4745C14.0559 18.8935 13.8465 19.4021 13.8465 20C13.8465 20.5979 14.0559 21.1065 14.4748 21.5255C14.8938 21.9444 15.4024 22.1538 16.0003 22.1538ZM12.308 12H19.6926V9.53846C19.6926 8.51282 19.3336 7.64103 18.6157 6.92308C17.8977 6.20513 17.0259 5.84615 16.0003 5.84615C14.9747 5.84615 14.1029 6.20513 13.3849 6.92308C12.667 7.64103 12.308 8.51282 12.308 9.53846V12Z" fill="white"/>
</svg>
