<svg width="40" height="41" viewBox="0 0 40 41" fill="none" xmlns="http://www.w3.org/2000/svg">
<path d="M26.3876 40.5C30.395 38.4441 36.2533 33.4018 38.1435 29.2748C40.0337 25.1479 40.4967 20.4966 39.4581 16.0707C38.4195 11.6447 35.9396 7.70167 32.4181 4.87701C28.8966 2.05236 24.5386 0.510561 20.0462 0.500054C15.5538 0.489547 11.1888 2.01094 7.65444 4.8191C4.12009 7.62725 1.62226 11.5586 0.563451 15.9797C-0.495359 20.4008 -0.0534889 25.0541 1.81786 29.1898C3.68921 33.3256 8.66666 38.3059 13.5542 40.5L13.5542 33.4911C10.7288 32.0249 8.47313 29.6381 7.15065 26.7154C5.82816 23.7926 5.51589 20.5041 6.26416 17.3797C7.01242 14.2554 8.77764 11.4771 11.2754 9.49253C13.7731 7.508 16.8579 6.43283 20.0326 6.44025C23.2074 6.44768 26.2872 7.53727 28.7759 9.53346C31.2646 11.5296 33.0171 14.3162 33.7511 17.444C34.4851 20.5719 34.1578 23.8589 32.822 26.7754C31.4862 29.692 29.2197 32.0681 26.3876 33.5211V40.5Z" fill="white"/>
<path d="M27 18.2216C27 15.5212 26.5607 13.1818 25.1854 11.7891C23.8102 10.3964 21.9449 9.61401 20 9.61401C18.0551 9.61401 16.1898 10.3964 14.8145 11.7891C13.4393 13.1818 13 15.5212 13 18.2216H20H27Z" fill="white"/>
<ellipse cx="19.9999" cy="24.1286" rx="3.66666" ry="3.71308" fill="white"/>
<ellipse cx="20.0001" cy="32.5675" rx="2.33333" ry="2.36287" fill="#D3BFFB"/>
<ellipse cx="20.0001" cy="38.9811" rx="1.33333" ry="1.35021" fill="#F0EAFF"/>
</svg>
