<svg width="29" height="38" viewBox="0 0 29 38" fill="none" xmlns="http://www.w3.org/2000/svg">
<path d="M14.5 24C12.8333 24 11.4167 23.4167 10.25 22.25C9.08333 21.0833 8.5 19.6667 8.5 18V6C8.5 4.33333 9.08333 2.91667 10.25 1.75C11.4167 0.583333 12.8333 0 14.5 0C16.1667 0 17.5833 0.583333 18.75 1.75C19.9167 2.91667 20.5 4.33333 20.5 6V18C20.5 19.6667 19.9167 21.0833 18.75 22.25C17.5833 23.4167 16.1667 24 14.5 24ZM12.5 38V31.85C9.03333 31.3833 6.16667 29.8333 3.9 27.2C1.63333 24.5667 0.5 21.5 0.5 18H4.5C4.5 20.7667 5.475 23.125 7.425 25.075C9.375 27.025 11.7333 28 14.5 28C17.2667 28 19.625 27.025 21.575 25.075C23.525 23.125 24.5 20.7667 24.5 18H28.5C28.5 21.5 27.3667 24.5667 25.1 27.2C22.8333 29.8333 19.9667 31.3833 16.5 31.85V38H12.5Z" fill="#B77895"/>
</svg>
