<svg width="24" height="24" viewBox="0 0 24 24" fill="none" xmlns="http://www.w3.org/2000/svg">
<path d="M12 10.9449C10.5857 10.9449 9.375 10.4413 8.36786 9.43418C7.36071 8.42704 6.85714 7.21632 6.85714 5.80204C6.85714 4.38775 7.36071 3.17704 8.36786 2.16989C9.375 1.16275 10.5857 0.65918 12 0.65918C13.4143 0.65918 14.625 1.16275 15.6321 2.16989C16.6393 3.17704 17.1429 4.38775 17.1429 5.80204C17.1429 7.21632 16.6393 8.42704 15.6321 9.43418C14.625 10.4413 13.4143 10.9449 12 10.9449ZM0 21.5606V20.5188C0 19.811 0.206 19.1489 0.618 18.5323C1.03029 17.916 1.58471 17.4375 2.28129 17.0966C3.899 16.3209 5.51771 15.739 7.13743 15.351C8.75714 14.9633 10.378 14.7695 12 14.7695C13.622 14.7695 15.2429 14.9633 16.8626 15.351C18.4823 15.739 20.101 16.3209 21.7187 17.0966C22.4153 17.4375 22.9697 17.916 23.382 18.5323C23.794 19.1489 24 19.811 24 20.5188V21.5606C24 22.0638 23.8291 22.4862 23.4874 22.8279C23.1457 23.1699 22.7231 23.3409 22.2197 23.3409H1.78029C1.27686 23.3409 0.854286 23.1699 0.512572 22.8279C0.170857 22.4862 0 22.0638 0 21.5606ZM1.71429 21.6266H22.2857V20.5188C22.2857 20.1385 22.1631 19.7813 21.918 19.4473C21.6731 19.1133 21.3341 18.8309 20.901 18.6C19.4901 17.9166 18.0354 17.393 16.5369 17.0293C15.0383 16.6656 13.526 16.4838 12 16.4838C10.474 16.4838 8.96171 16.6656 7.46314 17.0293C5.96457 17.393 4.50986 17.9166 3.099 18.6C2.66586 18.8309 2.32686 19.1133 2.082 19.4473C1.83686 19.7813 1.71429 20.1385 1.71429 20.5188V21.6266ZM12 9.23061C12.9429 9.23061 13.75 8.89489 14.4214 8.22347C15.0929 7.55204 15.4286 6.74489 15.4286 5.80204C15.4286 4.85918 15.0929 4.05204 14.4214 3.38061C13.75 2.70918 12.9429 2.37347 12 2.37347C11.0571 2.37347 10.25 2.70918 9.57857 3.38061C8.90714 4.05204 8.57143 4.85918 8.57143 5.80204C8.57143 6.74489 8.90714 7.55204 9.57857 8.22347C10.25 8.89489 11.0571 9.23061 12 9.23061Z" fill="white"/>
</svg>
