<svg width="45" height="48" viewBox="0 0 45 48" fill="none" xmlns="http://www.w3.org/2000/svg">
<path d="M18.9356 31.05H23.6696L24.0246 28.1125C24.3402 27.995 24.6262 27.8579 24.8826 27.7012C25.139 27.5446 25.3659 27.3683 25.5631 27.1725L28.2851 28.3475L30.6521 24.3525L28.2851 22.59C28.364 22.2767 28.4035 21.9633 28.4035 21.65C28.4035 21.3367 28.364 21.0233 28.2851 20.71L30.6521 18.9475L28.2851 14.9525L25.5631 16.1275C25.3659 15.9317 25.139 15.7554 24.8826 15.5988C24.6262 15.4421 24.3402 15.305 24.0246 15.1875L23.6696 12.25H18.9356L18.5806 15.1875C18.265 15.305 17.979 15.4421 17.7226 15.5988C17.4662 15.7554 17.2393 15.9317 17.0421 16.1275L14.3201 14.9525L11.9531 18.9475L14.3201 20.71C14.2412 21.0233 14.2017 21.3367 14.2017 21.65C14.2017 21.9633 14.2412 22.2767 14.3201 22.59L11.9531 24.3525L14.3201 28.3475L17.0421 27.1725C17.2393 27.3683 17.4662 27.5446 17.7226 27.7012C17.979 27.8579 18.265 27.995 18.5806 28.1125L18.9356 31.05ZM21.3026 25.175C20.3164 25.175 19.4781 24.8323 18.7877 24.1469C18.0973 23.4615 17.7522 22.6292 17.7522 21.65C17.7522 20.6708 18.0973 19.8385 18.7877 19.1531C19.4781 18.4677 20.3164 18.125 21.3026 18.125C22.2888 18.125 23.1271 18.4677 23.8175 19.1531C24.5079 19.8385 24.853 20.6708 24.853 21.65C24.853 22.6292 24.5079 23.4615 23.8175 24.1469C23.1271 24.8323 22.2888 25.175 21.3026 25.175ZM7.10087 47.5V37.395C4.85226 35.3583 3.10663 32.979 1.86398 30.2569C0.621326 27.5348 0 24.6658 0 21.65C0 15.775 2.07109 10.7812 6.21326 6.66875C10.3554 2.55625 15.3852 0.5 21.3026 0.5C26.2338 0.5 30.6028 1.93937 34.4096 4.81812C38.2165 7.69687 40.6919 11.4471 41.8359 16.0687L44.913 28.1125C45.1102 28.8567 44.9722 29.5323 44.4988 30.1394C44.0254 30.7465 43.3942 31.05 42.6052 31.05H37.8713V38.1C37.8713 39.3925 37.4078 40.499 36.4807 41.4194C35.5536 42.3398 34.4392 42.8 33.1374 42.8H28.4035V47.5H7.10087Z" fill="#B77895"/>
</svg>
