<svg width="32" height="32" viewBox="0 0 32 32" fill="none" xmlns="http://www.w3.org/2000/svg">
<path d="M20.3937 16.5229L19.0772 15.2064C19.2771 14.1633 19.0028 13.2736 18.2544 12.5372C17.5059 11.8008 16.6079 11.5182 15.5604 11.6895L14.2439 10.373C14.5159 10.2468 14.7958 10.1558 15.0836 10.1002C15.3714 10.0446 15.6671 10.0168 15.9707 10.0168C17.3008 10.0168 18.4298 10.4809 19.3579 11.4089C20.2859 12.337 20.7499 13.466 20.7499 14.7961C20.7499 15.0997 20.724 15.3954 20.6722 15.6832C20.6203 15.971 20.5275 16.2509 20.3937 16.5229ZM24.1225 20.1705L22.8285 18.9577C23.5709 18.3911 24.2352 17.761 24.8214 17.0674C25.4075 16.3738 25.896 15.6167 26.2867 14.7961C25.3098 12.8227 23.8982 11.2548 22.0519 10.0923C20.2055 8.92982 18.1785 8.34856 15.9707 8.34856C15.4041 8.34856 14.8521 8.38764 14.3149 8.46579C13.7776 8.54394 13.2354 8.66117 12.6883 8.81747L11.3222 7.45136C12.0676 7.15679 12.8277 6.93961 13.6025 6.79984C14.3772 6.66007 15.1666 6.59018 15.9707 6.59018C18.4896 6.59018 20.8033 7.2447 22.9119 8.55374C25.0205 9.86278 26.6421 11.634 27.7768 13.8673C27.855 14.0161 27.9117 14.166 27.947 14.317C27.9823 14.4681 28 14.6278 28 14.7961C28 14.9644 27.9853 15.1241 27.956 15.2751C27.9267 15.4262 27.873 15.5761 27.7949 15.7249C27.38 16.6071 26.8593 17.4217 26.2326 18.1686C25.6059 18.9156 24.9025 19.5829 24.1225 20.1705ZM15.9707 23.002C13.5029 23.002 11.241 22.3426 9.18506 21.0238C7.12907 19.705 5.49464 17.968 4.28179 15.8128C4.1841 15.664 4.11271 15.5025 4.06764 15.3281C4.02255 15.1538 4 14.9764 4 14.7961C4 14.6157 4.01954 14.4414 4.05861 14.2731C4.09769 14.1047 4.16607 13.9402 4.26376 13.7794C4.69961 12.9828 5.19333 12.2242 5.7449 11.5036C6.29648 10.7829 6.93071 10.137 7.64759 9.56594L5.00095 6.90124C4.83863 6.7269 4.7586 6.51988 4.76087 6.28017C4.76311 6.04046 4.84915 5.83569 5.01897 5.66587C5.18879 5.49604 5.3947 5.41113 5.63667 5.41113C5.87863 5.41113 6.08452 5.49604 6.25434 5.66587L25.687 25.0986C25.8493 25.2609 25.9354 25.4619 25.9451 25.7016C25.9549 25.9413 25.8689 26.1521 25.687 26.3339C25.5172 26.5038 25.3113 26.5887 25.0693 26.5887C24.8274 26.5887 24.6215 26.5038 24.4517 26.3339L20.3262 22.2445C19.6348 22.512 18.9243 22.7051 18.1946 22.8239C17.465 22.9426 16.7237 23.002 15.9707 23.002ZM8.88297 10.8013C8.19613 11.3318 7.5788 11.9319 7.03098 12.6014C6.48315 13.271 6.02438 14.0025 5.65467 14.7961C6.63156 16.7694 8.04318 18.3373 9.88951 19.4998C11.7358 20.6623 13.7629 21.2436 15.9707 21.2436C16.4742 21.2436 16.9698 21.2098 17.4575 21.1421C17.9452 21.0745 18.4295 20.9701 18.9104 20.8288L17.427 19.3093C17.1896 19.413 16.9525 19.4833 16.7158 19.5201C16.4791 19.5569 16.2307 19.5753 15.9707 19.5753C14.6406 19.5753 13.5116 19.1113 12.5835 18.1833C11.6555 17.2552 11.1914 16.1261 11.1914 14.7961C11.1914 14.5361 11.2117 14.2877 11.2523 14.051C11.2929 13.8143 11.3613 13.5772 11.4575 13.3397L8.88297 10.8013Z" fill="#B9B9B9"/>
</svg>
